<?xml version="1.0" encoding="utf-8"?>
<!-- Generator: Adobe Illustrator 16.0.0, SVG Export Plug-In . SVG Version: 6.00 Build 0)  -->
<!DOCTYPE svg PUBLIC "-//W3C//DTD SVG 1.1//EN" "http://www.w3.org/Graphics/SVG/1.1/DTD/svg11.dtd">
<svg version="1.1" id="Layer_1" xmlns="http://www.w3.org/2000/svg" xmlns:xlink="http://www.w3.org/1999/xlink" x="0px" y="0px"
	 width="200px" height="200px" viewBox="0 0 200 200" style="enable-background:new 0 0 200 200;" xml:space="preserve">
<style type="text/css">
<![CDATA[
	.st0{opacity:0.6;fill:#FFFFFF;stroke:#000000;stroke-miterlimit:10;}
]]>
</style>
<path class="st0" d="M54.7,85.9c-0.8,1.5-1.6,2.8-2.3,4.2c-21.7-5.9-39.5,9.2-41.8,26.9c-2.3,18.6,11.4,35.3,29.9,36.5
	c20.5,1.3,34-15.2,34.4-29.8c-0.6,0-1.1-0.1-1.7-0.1c-8.3,0-16.5,0-24.8,0c-0.9,0-1.8,0.5-2.5,1c-1.6,1.2-3.3,1.6-5.1,0.7
	c-1.8-0.9-2.7-2.4-2.6-4.5c0.2-2,1.3-3.5,3.2-4c1.3-0.3,1.9-1,2.5-2.1c9.1-16.2,18-32.4,27-48.6c0.7-1.2,0.8-2.3,0.4-3.7
	c-1.1-3.4-2.1-6.8-3.2-10.5c-3.9,1.9-7,0.6-10-1.9c-1.2-1-2.5-1.9-3.8-2.8c-1.5-1.1-1.9-2.6-1.3-4.3c0.6-1.7,2-1.7,3.5-1.6
	c7.5,0.1,14.9,0.1,22.4,0.1c1.2,0,2.4,0,3.5,0c1.6,0,2.4,1.1,2.4,2.6s-0.8,2.5-2.4,2.5c-3.3,0.1-6.4,0.9-9.6,2.5
	c1.6,5.1,3.1,10,4.7,15c0.1,0.4,0.7,0.7,1.1,0.8c0.6,0.1,1.2,0,1.8,0c17.4,0,34.7,0,52.1,0c0.6,0,1.2,0,2-0.1
	c-0.2-0.8-0.4-1.5-0.6-2.1c-1.1-3.4-2.1-6.9-3.2-10.3c-0.8-2.8,0.2-4.3,3.2-4.4c7.3,0,14.5,0,21.8,0c0.7,0,1.4,0.1,2.1,0.2
	c5.5,0.8,9.8,5.9,9.5,11.5c-0.3,5.8-5,10.6-10.7,10.9c-1.9,0.1-3.2-0.9-3.4-2.5c-0.2-1.8,0.9-2.8,3.2-3.2c3-0.4,4.9-2.3,5.1-5
	c0.2-2.8-1.3-5.1-3.9-5.9c-0.4-0.1-0.8-0.2-1.1-0.2c-0.5,0-1,0-1.6,0c-6,0-11.9,0-18.2,0c0.5,1.8,1,3.4,1.5,4.9
	c5.4,17.4,10.8,34.7,16.2,52.1c0.4,1.4,1,2.8,1.6,4.2c0.6,1.5,1.1,2.9,2.9,3.6c1.5,0.6,2,2.8,1.3,4.3c-0.7,1.4-2.4,2.2-4,1.7
	c-1.6-0.5-2.6-2.1-2.5-3.8c0.1-1.1,0-2.4-0.5-3.5c-3.5-8.2-7.1-16.4-10.7-24.8c-0.2,0.1-0.6,0.2-1.1,0.5
	c-11.9,6.4-18.7,20.3-16.4,33.4c2.5,14.2,13.2,24.9,27,26.9c17.6,2.6,34.2-9.3,36.9-26.4c2.8-18.3-8.9-34.7-27-37.6
	c-2.4-0.4-4.8-0.4-7.2-0.2c-1.6,0.1-2.3-0.3-2.5-1.8c-0.1-0.9-0.5-1.7-0.8-3.1c3.5,0,6.8-0.4,10,0.1c16.9,2.2,29.3,13.9,32.5,30.6
	c4,20.6-11.4,41.3-32.3,43.5c-21.2,2.2-39.2-12.2-41.7-33.1c-1.7-14.8,6.2-29.7,19.5-36.8c1.4-0.8,1.9-1.4,1.3-3
	c-1.2-3.2-2.1-6.4-3.7-10c-0.3,0.5-0.6,1.1-1,1.6c-12,13.4-24,26.7-36,40c-0.8,0.8-1,1.5-0.8,2.8c0.9,4-1.5,7.5-5.6,8.6
	c-0.6,0.1-1.4,0.6-1.5,1.1c-0.9,3.5-1.7,7.1-2.6,10.7c0.7,0,1.3-0.1,1.7,0.2c0.5,0.3,1.1,0.7,1.3,1.2c0.2,0.7,0.2,1.6,0,2.3
	c-0.1,0.4-0.7,1-1,1.1c-2.9,0.1-5.9,0-8.7,0c-0.9-4.1-0.7-4.4,3.1-4.9c0.9-3.8,1.9-7.7,2.7-11.5c0.1-0.4-0.3-1-0.6-1.5
	c-0.2-0.4-0.7-0.6-1-0.9c-0.7-0.8-1.2-2.2-2.1-2.4c-1.5-0.4-3.2-0.1-5-0.1c-1.6,14.1-8.3,24.8-21,31.1c-9.2,4.6-18.9,5.1-28.6,1.8
	c-19.8-6.9-30.1-28.7-22.9-48.1C15.4,87.7,37.4,79.7,54.7,85.9z M79.6,70.4c0.1,0.6,0.2,1,0.3,1.5c4.2,13.6,8.3,27.2,12.5,40.9
	c0.6,1.9,2.3,2.2,3.7,0.7c12.5-13.8,25-27.7,37.5-41.5c0.4-0.4,0.7-0.9,1.1-1.5C116.2,70.4,98,70.4,79.6,70.4z M74.5,114.1
	c-2.1-8.4-6.6-15.1-14-20c-4.6,8.4-9.1,16.6-13.8,25c0.9,0.1,1.4,0.1,1.9,0.1c11.6,0,23.2,0,34.8,0c2.5,0,4.5-2.7,3.7-5.1
	c-3.2-10.3-6.3-20.6-9.5-30.9c-1.3-4.2-2.5-8.3-4-13c-3.7,6.8-7.2,13.1-10.7,19.5c8.8,6,14.4,14,16.5,24.5
	C77.7,114.1,76.1,114.1,74.5,114.1z"/>
</svg>
