<?xml version="1.0" encoding="utf-8"?>
<!-- Generator: Adobe Illustrator 16.0.0, SVG Export Plug-In . SVG Version: 6.00 Build 0)  -->
<!DOCTYPE svg PUBLIC "-//W3C//DTD SVG 1.1//EN" "http://www.w3.org/Graphics/SVG/1.1/DTD/svg11.dtd">
<svg version="1.1" id="Layer_1" xmlns="http://www.w3.org/2000/svg" xmlns:xlink="http://www.w3.org/1999/xlink" x="0px" y="0px"
	 width="200px" height="200px" viewBox="0 0 200 200" style="enable-background:new 0 0 200 200;" xml:space="preserve">
<style type="text/css">
<![CDATA[
	.st0{opacity:0.6;fill:#FFFFFF;stroke:#000000;stroke-miterlimit:10;}
]]>
</style>
<path class="st0" d="M125,95.9c0.4-2.3,0.6-4.4,1.1-6.4c0.5-1.9,1.5-3.8,2.3-6c-2.6-1.2-5.3-2.4-8-3.7c-6.6-3.2-13.7-3.5-20.8-4.2
	c-5.5-0.5-11-1-16.2-3c-3.4-1.3-5-3.3-5-6.1c0.1-2.5,1.5-4,3.5-5.1c4.3-2.4,9.1-2.5,13.8-2.3c9.2,0.3,17.7,2.8,25.3,8.1
	c0.3,0.2,0.6,0.3,0.9,0.3c-4.7-3.4-9.7-6.7-15.5-7.8c-4.5-0.9-9.1-1.1-13.7-1.4c-3-0.2-9.3-4.2-10.3-7c-1-2.8,0.3-5.8,3.4-7
	c3.9-1.5,7.9-1.1,11.9-0.3c10.6,2.1,19.7,7.1,26.8,15.3c4.3,5,8.2,10.3,12.3,15.4c0.2,0.3,0.4,0.6,0.5,0.6c2.9-0.6,5.5-1.5,8.2-1.8
	c10.8-1.2,20.7,5.7,23.6,16.2c0.3,1,0.7,2,1.2,3c2.1,4.4,2,8.7-0.7,12.8c-0.5,0.8-1.3,1.8-2.1,2.1c-2.5,1-4.2,2.9-6.2,4.4
	c-5.1,3.9-10.9,5.4-17.2,4.4c-0.3,0-0.6-0.1-0.9-0.1c-0.1,0-0.2,0.1-0.5,0.1c-2.3,6.3-21.4,25.6-29.5,28.4c-0.7-2.6-1.3-5.2-2-7.9
	c-0.1-0.2,0-0.5-0.1-0.7c-1.8-3.7-0.4-6.3,2.8-8.4c1.2-0.8,2.2-2,3.4-2.9c1.2-0.9-3.6,2.7-7.2,5.6c-1-3.9-1.8-7.6-2.9-11.3
	c-1.8-6.2-4.5-12-10-15.9c-2.5-1.8-5.3-2.8-8.1-3.5c2.6,1.4,5.3,2.7,7.8,4.4c5.8,4.1,8.8,10.1,10.3,16.7c1.8,7.6,3,15.4,4.4,23.1
	c0.1,0.7,0.3,1.4,0.5,2.4c2.8-1.4,5.5-2.8,8.2-3.9c4.1-1.7,8.1-3.5,12.4-4.7c4.5-1.2,7.8,0.5,9.7,4.2c1,1.9,0.9,2.1-1.1,2.8
	c-6.8,2.4-13.7,4.8-20.5,7.2c-3.9,1.4-7.9,2.7-11.8,4.3c-1.7,0.7-2.1,0.1-2.8-1.2c-2.7-5.4-5.5-10.8-8.3-16.1
	c-3-5.6-7.2-10-13.7-10.8c-4.3-0.5-8.7-0.1-13.1-0.1c-2.2,0-4.4,0.1-6.6-0.3c-3.7-0.6-6.5-2.7-8.7-5.8c-6.8-9.7-2.8-22.4,5.6-29.3
	c9.4-7.8,20.4-10.3,32.4-9.5c7.1,0.5,13.2,3.4,19.2,7c3,1.9,6.3,3.4,9.5,5C123.2,95.6,124.1,95.7,125,95.9z M155.1,87.1
	c-0.3,0.2-1,0.3-1.5,0.7c-1.2,1.1-1.4,2.6-1,4.1c0.4,1.4,1.3,2.6,2.8,2.9c0.6,0.1,1.3,0,1.9-0.3c1.3-0.6,1.9-2.6,1.4-4.3
	C158.3,88.5,156.9,87.1,155.1,87.1z"/>
<path class="st0" d="M28.3,106.5c1.6,1,2.2,3.8,4.7,2.3c-3.5-7-3-12.4,1.1-15.3c0.5,1.7,1.1,3.5,1.6,5.2c0.1-0.1,0.2-0.1,0.4-0.2
	c0.3-1.4,0.5-2.9,1.1-4.2c0.6-1.2,1.8-2.1,3-3.6c0.2,1,0.3,1.3,0.3,1.7c0.1,1.8,1.1,2.5,2.8,1.9c2-0.8,3.9-0.3,5.6,0.8
	c0.9,0.5,1.6,1.2,2.4,1.9c1.8,1.7,2.7,3.3,1.5,6.1c-2.4,5.6-2.1,11.4,0.5,17.1c-1.8,3-7,5.3-12.4,3.8
	C32.5,121.8,28.3,113.7,28.3,106.5z"/>
<path class="st0" d="M98,141c1.6,3.3,3.3,6.8,5.2,10.7c-2.4,0.5-4.6,1.1-6.8,1.4c-3.1,0.5-6.2,1-9.4,1.4c-1.6,0.2-3.3,0.1-5-0.2
	c-2.3-0.4-3.3-1.7-2.9-4.1c0.6-4.4,3.6-6.6,7.4-8c1.9-0.7,4-0.7,6-0.9C94.2,141.1,95.9,141.1,98,141z"/>
</svg>
