<?xml version="1.0" encoding="utf-8"?>
<!-- Generator: Adobe Illustrator 16.0.0, SVG Export Plug-In . SVG Version: 6.00 Build 0)  -->
<!DOCTYPE svg PUBLIC "-//W3C//DTD SVG 1.1//EN" "http://www.w3.org/Graphics/SVG/1.1/DTD/svg11.dtd">
<svg version="1.1" id="Layer_1" xmlns="http://www.w3.org/2000/svg" xmlns:xlink="http://www.w3.org/1999/xlink" x="0px" y="0px"
	 width="200px" height="200px" viewBox="0 0 200 200" style="enable-background:new 0 0 200 200;" xml:space="preserve">
<style type="text/css">
<![CDATA[
	.st0{fill:#FFFFFF;stroke:#000000;stroke-miterlimit:10;}
	.st1{opacity:0.6;}
]]>
</style>
<g class="st1">
	<path class="st0" d="M90.7,96c-0.2-22.5,0.5-26.6,0-36.7c-0.3-7.1-1.6-19.6,0.1-18.7c6.6,3.4,12.8,86.9,2.5,86.9
		C89.7,127.5,89,118.8,90.7,96L90.7,96z"/>
	<path class="st0" d="M131.6,120c0-4.2,0.9-11,3.6-18.5c3.5-9.6,10.6-12,3-9.1c-3.3,1.3-8.9,7.9-11.4,15c-5.6,16-4.7,20.2,0.6,20.2
		C129.7,127.5,131.6,124.1,131.6,120z M114.9,115.2c0-16.2,3.8-26.2,8.6-39.6c4.9-13.8,16.3-23.6,5.5-14.7
		c-15.8,13.1-30.5,66.6-18.3,66.6C113,127.5,114.9,122,114.9,115.2z"/>
	<path class="st0" d="M136.2,153.8c-5.5,0.2-11.2,0.2-16.6,1.3c-1.4,0.8-0.6,2.9,0.9,2.9c8.2,1.9,16.8,1.3,25.3,1.3
		c3.6-0.2,7.4-0.2,10.8-1.5c1.3-0.9,0.4-3-1.1-2.9C149.2,153.5,142.6,153.8,136.2,153.8z"/>
	<path class="st0" d="M52.7,120c0-4.2-0.9-11-3.6-18.5c-3.5-9.6-10.6-12-3-9.1c3.3,1.3,8.9,7.9,11.4,15c5.6,16,4.7,20.2-0.6,20.2
		C54.6,127.5,52.7,124.1,52.7,120z M69.5,115.2c0-16.2-3.8-26.2-8.6-39.6C56,61.8,44.6,52,55.4,60.9c15.8,13.1,30.5,66.6,18.3,66.6
		C71.4,127.5,69.5,122,69.5,115.2z"/>
	<path class="st0" d="M110.5,138.1c-13.6,0.2-27.2,0.2-40.7,1.2c-1.3,0.2-1.9,2.1-0.5,2.6c6.8,1.5,13.8,1.2,20.7,1.6
		c19,0.4,38,0.6,56.9-0.8c1.3-0.3,4-0.3,3.7-2.2c-0.9-1.8-3.6-1.2-5.2-1.6C133.7,138.1,122.1,138.1,110.5,138.1z"/>
</g>
</svg>
